<svg width="60" height="60" viewBox="0 0 60 60" fill="none" xmlns="http://www.w3.org/2000/svg">
<path d="M55 56.875H5C3.975 56.875 3.125 56.025 3.125 55C3.125 53.975 3.975 53.125 5 53.125H55C56.025 53.125 56.875 53.975 56.875 55C56.875 56.025 56.025 56.875 55 56.875Z" fill="#FE7C56"/>
<path d="M9.25 54.9969H5.5L5.62501 24.9218C5.62501 22.7968 6.6 20.8219 8.275 19.5219L25.775 5.89687C28.25 3.97188 31.725 3.97188 34.225 5.89687L51.725 19.4969C53.375 20.7969 54.375 22.8218 54.375 24.9218V54.9969H50.625V24.9469C50.625 23.9969 50.175 23.0719 49.425 22.4719L31.925 8.87188C30.8 7.99688 29.225 7.99688 28.075 8.87188L10.575 22.4969C9.82502 23.0719 9.37501 23.9969 9.37501 24.9469L9.25 54.9969Z" fill="#FE7C56"/>
<path d="M42.5 56.875H17.5C16.475 56.875 15.625 56.025 15.625 55V31.25C15.625 28.15 18.15 25.625 21.25 25.625H38.75C41.85 25.625 44.375 28.15 44.375 31.25V55C44.375 56.025 43.525 56.875 42.5 56.875ZM19.375 53.125H40.625V31.25C40.625 30.225 39.775 29.375 38.75 29.375H21.25C20.225 29.375 19.375 30.225 19.375 31.25V53.125Z" fill="#FE7C56"/>
<path d="M25 46.25C23.975 46.25 23.125 45.4 23.125 44.375V40.625C23.125 39.6 23.975 38.75 25 38.75C26.025 38.75 26.875 39.6 26.875 40.625V44.375C26.875 45.4 26.025 46.25 25 46.25Z" fill="#FE7C56"/>
<path d="M33.75 20.625H26.25C25.225 20.625 24.375 19.775 24.375 18.75C24.375 17.725 25.225 16.875 26.25 16.875H33.75C34.775 16.875 35.625 17.725 35.625 18.75C35.625 19.775 34.775 20.625 33.75 20.625Z" fill="#FE7C56"/>
</svg>
