<svg width="168" height="42" viewBox="0 0 168 42" fill="none" xmlns="http://www.w3.org/2000/svg">
<g clip-path="url(#clip0_2_5)">
<path d="M49.2773 29.4569H61.2293V25.8569H53.5253V12.2969H49.2773V29.4569Z" fill="#181818"/>
<path d="M68.3098 27.0521C66.6058 27.0521 65.7178 25.5641 65.7178 23.3321C65.7178 21.1001 66.6058 19.5881 68.3098 19.5881C70.0138 19.5881 70.9258 21.1001 70.9258 23.3321C70.9258 25.5641 70.0138 27.0521 68.3098 27.0521ZM68.3338 29.8361C72.2938 29.8361 74.8858 27.0281 74.8858 23.3321C74.8858 19.6361 72.2938 16.8281 68.3338 16.8281C64.3978 16.8281 61.7578 19.6361 61.7578 23.3321C61.7578 27.0281 64.3978 29.8361 68.3338 29.8361Z" fill="#181818"/>
<path d="M81.7406 33.7007C83.5646 33.7007 85.1726 33.2927 86.2526 32.3327C87.2366 31.4447 87.8846 30.1007 87.8846 28.2527V17.1647H84.1406V18.4847H84.0926C83.3726 17.4527 82.2686 16.8047 80.6366 16.8047C77.5886 16.8047 75.4766 19.3487 75.4766 22.9487C75.4766 26.7167 78.0446 28.7807 80.8046 28.7807C82.2926 28.7807 83.2286 28.1807 83.9486 27.3647H84.0446V28.5887C84.0446 30.0767 83.3486 30.9407 81.6926 30.9407C80.3966 30.9407 79.7486 30.3887 79.5326 29.7407H75.7406C76.1246 32.3087 78.3566 33.7007 81.7406 33.7007ZM81.7166 25.8767C80.2526 25.8767 79.2926 24.6767 79.2926 22.8287C79.2926 20.9567 80.2526 19.7567 81.7166 19.7567C83.3486 19.7567 84.2126 21.1487 84.2126 22.8047C84.2126 24.5327 83.4206 25.8767 81.7166 25.8767Z" fill="#181818"/>
<path d="M95.5833 27.0521C93.8793 27.0521 92.9912 25.5641 92.9912 23.3321C92.9912 21.1001 93.8793 19.5881 95.5833 19.5881C97.2873 19.5881 98.1992 21.1001 98.1992 23.3321C98.1992 25.5641 97.2873 27.0521 95.5833 27.0521ZM95.6072 29.8361C99.5672 29.8361 102.159 27.0281 102.159 23.3321C102.159 19.6361 99.5672 16.8281 95.6072 16.8281C91.6712 16.8281 89.0312 19.6361 89.0312 23.3321C89.0312 27.0281 91.6712 29.8361 95.6072 29.8361Z" fill="#181818"/>
<path d="M103.301 29.4569H107.213V17.1689H103.301V29.4569ZM103.301 15.4649H107.213V12.2969H103.301V15.4649Z" fill="#181818"/>
<path d="M108.91 33.5087H112.822V28.1807H112.87C113.638 29.2127 114.766 29.8367 116.35 29.8367C119.566 29.8367 121.702 27.2927 121.702 23.3087C121.702 19.6127 119.71 16.8047 116.446 16.8047C114.766 16.8047 113.566 17.5487 112.726 18.6527H112.654V17.1647H108.91V33.5087ZM115.342 26.8127C113.662 26.8127 112.702 25.4447 112.702 23.4527C112.702 21.4607 113.566 19.9487 115.27 19.9487C116.95 19.9487 117.742 21.3407 117.742 23.4527C117.742 25.5407 116.83 26.8127 115.342 26.8127Z" fill="#181818"/>
<path d="M128.072 29.8367C131.288 29.8367 133.664 28.4447 133.664 25.7567C133.664 22.6127 131.12 22.0607 128.96 21.7007C127.4 21.4127 126.008 21.2927 126.008 20.4287C126.008 19.6607 126.752 19.3007 127.712 19.3007C128.792 19.3007 129.536 19.6367 129.68 20.7407H133.28C133.088 18.3167 131.216 16.8047 127.736 16.8047C124.832 16.8047 122.432 18.1487 122.432 20.7407C122.432 23.6207 124.712 24.1967 126.848 24.5567C128.48 24.8447 129.968 24.9647 129.968 26.0687C129.968 26.8607 129.224 27.2927 128.048 27.2927C126.752 27.2927 125.936 26.6927 125.792 25.4687H122.096C122.216 28.1807 124.472 29.8367 128.072 29.8367Z" fill="#181818"/>
<path d="M138.978 29.8121C140.682 29.8121 141.762 29.1401 142.65 27.9401H142.722V29.4521H146.466V17.1641H142.554V24.0281C142.554 25.4921 141.738 26.5001 140.394 26.5001C139.146 26.5001 138.546 25.7561 138.546 24.4121V17.1641H134.658V25.2281C134.658 27.9641 136.146 29.8121 138.978 29.8121Z" fill="#181818"/>
<path d="M148.168 29.4527H152.08V22.5647C152.08 21.1007 152.8 20.0687 154.024 20.0687C155.2 20.0687 155.752 20.8367 155.752 22.1567V29.4527H159.664V22.5647C159.664 21.1007 160.36 20.0687 161.608 20.0687C162.784 20.0687 163.336 20.8367 163.336 22.1567V29.4527H167.248V21.4607C167.248 18.7007 165.856 16.8047 163.072 16.8047C161.488 16.8047 160.168 17.4767 159.208 18.9647H159.16C158.536 17.6447 157.312 16.8047 155.704 16.8047C153.928 16.8047 152.752 17.6447 151.984 18.9167H151.912V17.1647H148.168V29.4527Z" fill="#181818"/>
<path d="M25.4089 2.47573L21.4759 1.42188L18.1615 13.7914L15.1692 2.62411L11.2361 3.67797L14.4691 15.7434L6.41648 7.69085L3.53729 10.57L12.37 19.4028L1.37026 16.4554L0.316406 20.3884L12.335 23.6088C12.1974 23.0153 12.1246 22.3969 12.1246 21.7615C12.1246 17.2639 15.7706 13.6179 20.2682 13.6179C24.7658 13.6179 28.4118 17.2639 28.4118 21.7615C28.4118 22.3928 28.3399 23.0074 28.204 23.5974L39.1267 26.5241L40.1805 22.5911L28.1141 19.3579L39.1146 16.4103L38.0607 12.4773L25.9948 15.7103L34.0474 7.65779L31.1682 4.7786L22.458 13.4888L25.4089 2.47573Z" fill="#181818"/>
<path d="M28.1939 23.6406C27.8567 25.0662 27.1448 26.3469 26.168 27.373L34.081 35.2861L36.9602 32.4069L28.1939 23.6406Z" fill="#181818"/>
<path d="M26.0881 27.4609C25.0995 28.4706 23.8502 29.2241 22.4492 29.6124L25.3286 40.3584L29.2616 39.3045L26.0881 27.4609Z" fill="#181818"/>
<path d="M22.3023 29.6464C21.6523 29.8135 20.971 29.9023 20.2689 29.9023C19.5167 29.9023 18.7883 29.8003 18.0968 29.6094L15.2148 40.3652L19.1478 41.419L22.3023 29.6464Z" fill="#181818"/>
<path d="M17.9568 29.5739C16.5772 29.1663 15.3501 28.4032 14.3817 27.3906L6.44922 35.3231L9.32841 38.2023L17.9568 29.5739Z" fill="#181818"/>
<path d="M14.3163 27.319C13.3645 26.3 12.6712 25.0364 12.3412 23.6328L1.38281 26.5691L2.43666 30.5021L14.3163 27.319Z" fill="#181818"/>
</g>
<defs>
<clipPath id="clip0_2_5">
<rect width="168" height="41" fill="white" transform="translate(0 0.5)"/>
</clipPath>
</defs>
</svg>
