<svg width="60" height="60" viewBox="0 0 60 60" fill="none" xmlns="http://www.w3.org/2000/svg">
<path d="M17.5 44.37H12.5C6.45 44.37 3.125 41.045 3.125 34.995V24.995C3.125 18.945 6.45 15.62 12.5 15.62H16.075C16.65 15.62 17.225 15.445 17.725 15.145L25.025 10.57C28.675 8.29504 32.225 7.87004 35.025 9.42004C37.825 10.97 39.35 14.195 39.35 18.52V20.92C39.35 21.945 38.5 22.795 37.475 22.795C36.45 22.795 35.6 21.945 35.6 20.92V18.52C35.6 15.67 34.725 13.545 33.2 12.72C31.675 11.87 29.425 12.245 27 13.77L19.7 18.32C18.625 19.02 17.35 19.37 16.075 19.37H12.5C8.55 19.37 6.875 21.045 6.875 24.995V34.995C6.875 38.945 8.55 40.62 12.5 40.62H17.5C18.525 40.62 19.375 41.47 19.375 42.495C19.375 43.52 18.525 44.37 17.5 44.37Z" fill="#FE7C56"/>
<path d="M31.375 51.475C29.4 51.475 27.225 50.775 25.05 49.4C24.175 48.85 23.9 47.7 24.45 46.825C25 45.95 26.15 45.675 27.025 46.225C29.45 47.725 31.7 48.125 33.225 47.275C34.75 46.425 35.625 44.3 35.625 41.475V32.375C35.625 31.35 36.475 30.5 37.5 30.5C38.525 30.5 39.375 31.35 39.375 32.375V41.475C39.375 45.775 37.825 49.025 35.05 50.575C33.925 51.175 32.675 51.475 31.375 51.475Z" fill="#FE7C56"/>
<path d="M45.0007 41.8758C44.6007 41.8758 44.2257 41.7508 43.8757 41.5008C43.0507 40.8758 42.8757 39.7008 43.5007 38.8758C46.6507 34.6758 47.3257 29.1008 45.3007 24.2758C44.9007 23.3258 45.3507 22.2258 46.3007 21.8258C47.2507 21.4258 48.3507 21.8758 48.7507 22.8258C51.3007 28.8758 50.4257 35.9008 46.5007 41.1508C46.1257 41.6258 45.5757 41.8758 45.0007 41.8758Z" fill="#FE7C56"/>
<path d="M49.5749 48.1211C49.1749 48.1211 48.7999 47.9961 48.4499 47.7461C47.6249 47.1211 47.4499 45.9461 48.0749 45.1211C53.4249 37.9961 54.5999 28.4461 51.1499 20.2211C50.7499 19.2711 51.1999 18.1711 52.1499 17.7711C53.1249 17.3711 54.1999 17.8211 54.5999 18.7711C58.5749 28.2211 57.2249 39.1711 51.0749 47.3711C50.7249 47.8711 50.1499 48.1211 49.5749 48.1211Z" fill="#FE7C56"/>
<path d="M4.99961 56.8766C4.52461 56.8766 4.04961 56.7016 3.67461 56.3266C2.94961 55.6016 2.94961 54.4016 3.67461 53.6766L53.6746 3.67656C54.3996 2.95156 55.5996 2.95156 56.3246 3.67656C57.0496 4.40156 57.0496 5.60156 56.3246 6.32656L6.32461 56.3266C5.94961 56.7016 5.47461 56.8766 4.99961 56.8766Z" fill="#FE7C56"/>
</svg>
