<svg width="60" height="60" viewBox="0 0 60 60" fill="none" xmlns="http://www.w3.org/2000/svg">
<path d="M47.7253 31.475C47.3253 31.475 46.9253 31.35 46.5753 31.075C36.5003 23.3 23.4753 23.3 13.4003 31.075C12.5753 31.7 11.4003 31.55 10.7753 30.75C10.1503 29.925 10.3003 28.75 11.1003 28.125C22.5753 19.25 37.4003 19.25 48.8503 28.125C49.6753 28.75 49.8253 29.925 49.1753 30.75C48.8503 31.225 48.3003 31.475 47.7253 31.475Z" fill="#FE7C56"/>
<path d="M55.0003 22.775C54.6003 22.775 54.2003 22.6501 53.8503 22.3751C39.3503 11.1751 20.6253 11.1751 6.15034 22.3751C5.32534 23.0001 4.15033 22.85 3.52533 22.05C2.90033 21.225 3.0503 20.05 3.8503 19.425C19.7253 7.15 40.2503 7.15 56.1503 19.425C56.9753 20.05 57.1253 21.225 56.4753 22.05C56.1253 22.525 55.5503 22.775 55.0003 22.775Z" fill="#FE7C56"/>
<path d="M43.0249 40.6031C42.6249 40.6031 42.2249 40.4781 41.8749 40.2031C34.6749 34.6281 25.3499 34.6281 18.1249 40.2031C17.2999 40.8281 16.1249 40.6782 15.4999 39.8782C14.8749 39.0532 15.0249 37.8781 15.8249 37.2531C24.4249 30.6031 35.5499 30.6031 44.1499 37.2531C44.9749 37.8781 45.1249 39.0532 44.4749 39.8782C44.1249 40.3532 43.5749 40.6031 43.0249 40.6031Z" fill="#FE7C56"/>
<path d="M36.4999 49.7531C36.0999 49.7531 35.6999 49.6281 35.3499 49.3531C32.0999 46.8281 27.8749 46.8281 24.6249 49.3531C23.7999 49.9781 22.6249 49.8281 21.9999 49.0281C21.3749 48.2031 21.5249 47.0281 22.3249 46.4031C26.9749 42.8031 32.9749 42.8031 37.6249 46.4031C38.4499 47.0281 38.5999 48.2031 37.9499 49.0281C37.6249 49.4781 37.0749 49.7531 36.4999 49.7531Z" fill="#FE7C56"/>
</svg>
